<svg width="40" height="27" viewBox="0 0 40 27" fill="none" xmlns="http://www.w3.org/2000/svg">
<path d="M2 11.9736C1.01895 11.9736 0.223644 12.7689 0.223644 13.75C0.223644 14.7311 1.01895 15.5264 2 15.5264V11.9736ZM38.8811 15.0061C39.5748 14.3124 39.5748 13.1876 38.8811 12.4939L27.5764 1.18926C26.8827 0.495554 25.758 0.495554 25.0643 1.18926C24.3706 1.88297 24.3706 3.0077 25.0643 3.70141L35.1129 13.75L25.0643 23.7986C24.3706 24.4923 24.3706 25.617 25.0643 26.3107C25.758 27.0044 26.8827 27.0044 27.5764 26.3107L38.8811 15.0061ZM2 15.5264H37.625V11.9736H2V15.5264Z" fill="#FDFDFD"/>
</svg>
