<svg width="144" height="33" viewBox="0 0 144 33" fill="none" xmlns="http://www.w3.org/2000/svg">
<path d="M46.917 32.4151V0.400187H57.1217V4.00187H51.1371V13.4426H56.7216V17.0807H51.1371V32.4151H46.917Z" fill="#1F1F1F"/>
<path d="M59.3606 32.4151V0.400187H69.4198V3.98368H63.5808V14.243H69.1106V17.7901H63.5808V28.8316H69.5472V32.4151H59.3606Z" fill="#1F1F1F"/>
<path d="M77.3887 32.7789C76.079 32.7789 74.9997 32.5546 74.1508 32.1059C73.314 31.6572 72.6592 31.0145 72.1862 30.1777C71.7133 29.341 71.3859 28.3405 71.204 27.1763C71.022 26.0121 70.9311 24.7085 70.9311 23.2654V20.264H74.9875V23.5019C74.9875 25.5271 75.1391 26.9762 75.4423 27.8493C75.7576 28.7225 76.4064 29.159 77.3887 29.159C78.0556 29.159 78.5528 29.0014 78.8803 28.6861C79.2077 28.3708 79.4199 27.8675 79.5169 27.1763C79.6139 26.4851 79.6624 25.5695 79.6624 24.4296C79.6624 23.0956 79.4078 21.9254 78.8984 20.9188C78.4012 19.9002 77.6676 18.8876 76.6974 17.8811L74.4782 15.6618C73.8597 15.007 73.2655 14.3097 72.6956 13.57C72.1377 12.8181 71.683 11.9753 71.3313 11.0415C70.9796 10.1077 70.8038 9.04664 70.8038 7.85821C70.8038 6.22108 70.9917 4.81437 71.3677 3.63806C71.7436 2.46175 72.3924 1.56437 73.314 0.945895C74.2478 0.315298 75.5514 0 77.2249 0C78.5225 0 79.5715 0.218284 80.3719 0.654851C81.1722 1.07929 81.7846 1.6917 82.2091 2.49207C82.6335 3.29244 82.9246 4.25047 83.0822 5.36614C83.2399 6.48181 83.3187 7.73088 83.3187 9.11334V11.0415H79.3532V8.84048C79.3532 7.67631 79.2986 6.71222 79.1895 5.94823C79.0925 5.17211 78.8924 4.59002 78.5892 4.20196C78.286 3.8139 77.8313 3.61987 77.2249 3.61987C76.655 3.61987 76.1942 3.75326 75.8425 4.02006C75.4908 4.28685 75.2361 4.69916 75.0785 5.257C74.9208 5.80271 74.842 6.51213 74.842 7.38526C74.842 8.16138 74.933 8.81017 75.1149 9.33162C75.3089 9.85308 75.5999 10.3503 75.988 10.8232C76.3882 11.284 76.8733 11.8176 77.4432 12.424L79.808 14.9524C81.0085 16.2257 81.9665 17.6021 82.682 19.0816C83.4096 20.5611 83.7734 22.2467 83.7734 24.1385C83.7734 25.9697 83.5855 27.528 83.2095 28.8134C82.8336 30.0989 82.1848 31.0812 81.2632 31.7603C80.3415 32.4394 79.05 32.7789 77.3887 32.7789Z" fill="#1F1F1F"/>
<path d="M87.3766 32.4151V3.98368H83.7385V0.400187H94.9983V3.98368H91.5785V32.4151H87.3766Z" fill="#1F1F1F"/>
<path d="M96.4732 32.4151V0.400187H100.712V32.4151H96.4732Z" fill="#1F1F1F"/>
<path d="M107.698 32.4151L102.532 0.400187H106.552L108.662 14.334L110.263 25.521H110.354L111.736 14.334L113.537 0.400187H117.503L112.773 32.4151H107.698Z" fill="#1F1F1F"/>
<path d="M116.813 32.4151L121.542 0.400187H126.872L131.984 32.4151H128.018L127.163 26.4669H121.633L120.851 32.4151H116.813ZM122.07 23.0653H126.672L124.307 6.49394H124.253L122.07 23.0653Z" fill="#1F1F1F"/>
<path d="M133.768 32.4151V0.400187H137.988V28.868H144.009V32.4151H133.768Z" fill="#1F1F1F"/>
<path d="M34.3587 5.89273H47.9706L52.9856 32.4002H34.3587V5.89273Z" fill="#FDFDFD"/>
<path d="M0 32.4151L4.72948 0.400177H10.0592L15.1707 32.4151H11.2052L10.3503 26.4669H4.82043L4.03825 32.4151H0ZM5.257 23.0653H9.85914L7.4944 6.49393H7.43983L5.257 23.0653Z" fill="#EE6C34"/>
<path d="M16.9548 32.4151V0.400177H21.175V28.868H27.196V32.4151H16.9548Z" fill="#EE6C34"/>
<path d="M28.5617 32.4151V0.400177H38.7664V4.00186H32.7818V13.4426H38.3662V17.0807H32.7818V32.4151H28.5617Z" fill="#EE6C34"/>
<path d="M38.6406 32.4151L43.37 0.400177H48.6998L53.8113 32.4151H49.8458L48.9908 26.4669H43.461L42.6788 32.4151H38.6406ZM43.8976 23.0653H48.4997L46.135 6.49393H46.0804L43.8976 23.0653Z" fill="#EE6C34"/>
</svg>
